<svg width="750" height="658" viewBox="0 0 750 658" fill="none" xmlns="http://www.w3.org/2000/svg">
<path fill-rule="evenodd" clip-rule="evenodd" d="M134.002 353.076H308.315V142.582L272.838 107H134.002V353.076Z" fill="url(#paint0_linear_1_2858)"/>
<path fill-rule="evenodd" clip-rule="evenodd" d="M272.889 142.529L290.555 124.78L308.315 142.529V178.117L272.889 142.529Z" fill="black" fill-opacity="0.1"/>
<path fill-rule="evenodd" clip-rule="evenodd" d="M308.313 142.558H272.887V107L308.313 142.558Z" fill="#0080CD"/>
<g clip-path="url(#clip0_1_2858)">
<path d="M272 178.109C272 175.298 270.012 171.85 267.583 170.445L225.417 146.054C222.988 144.649 219.012 144.649 216.583 146.054L174.417 170.445C171.987 171.85 170 175.299 170 178.109V226.891C170 229.701 171.988 233.15 174.417 234.555L216.583 258.946C219.012 260.351 222.988 260.351 225.417 258.946L267.583 234.555C268.798 233.852 269.902 232.639 270.702 231.25C271.503 229.861 272 228.296 272 226.891V178.109Z" fill="#0080CD"/>
<path d="M225.416 258.946L267.583 234.555C268.797 233.852 269.901 232.639 270.702 231.25L220.999 202.5L171.297 231.25C172.097 232.639 173.202 233.853 174.416 234.555L216.583 258.946C219.012 260.351 222.987 260.351 225.416 258.946Z" fill="#00549E"/>
<path d="M221 236.564C202.252 236.564 187 221.283 187 202.5C187 183.717 202.252 168.436 221 168.436C233.097 168.436 244.38 174.958 250.444 185.457L235.729 193.988C232.694 188.733 227.05 185.468 221 185.468C211.626 185.468 204 193.108 204 202.5C204 211.891 211.626 219.532 221 219.532C227.051 219.532 232.695 216.267 235.73 211.011L250.445 219.541C244.381 230.042 233.098 236.564 221 236.564Z" fill="white"/>
<path d="M254.999 200.608H251.221V196.823H247.444V200.608H243.666V204.392H247.444V208.177H251.221V204.392H254.999V200.608Z" fill="white"/>
<path d="M269.167 200.608H265.389V196.823H261.612V200.608H257.834V204.392H261.612V208.177H265.389V204.392H269.167V200.608Z" fill="white"/>
</g>
<path d="M492.239 -52L453.785 20.0306L366.654 13.1596L420.563 82.0982L385.029 148.518L293.639 7.43376L323.819 -41.6936L492.239 -52Z" fill="#89D3DF"/>
<path fill-rule="evenodd" clip-rule="evenodd" d="M804.866 331.401L804.865 331.401L732.216 481.301L672.831 405.148L709.458 357.282L648.372 373.772L672.831 405.148L732.216 481.301L607.117 491.379L548.462 400.797L316.032 463.781L225.86 656.51L112.565 657.999L112.564 658L0 549.324L44.0522 412.02L264.8 373.428L264.802 373.427L453.788 20.0304L492.242 -52L521.205 25.2982L466.807 141.418L602.128 314.566L602.129 314.567L763.492 286.51L804.865 331.4L804.866 331.401ZM121.691 516.344L199.573 495.273L160.39 568.562L160.389 568.563L121.691 516.344ZM430.665 218.945L366.657 355.677L503.68 331.743H503.923L430.665 218.945Z" fill="#89D3DF"/>
<path d="M709.459 357.28L672.831 405.148L732.216 481.301L804.865 331.4L709.459 357.28Z" fill="#258B74"/>
<path d="M366.654 13.1596L293.639 7.43376L385.029 148.518L420.563 82.0982L366.654 13.1596Z" fill="#63C1A0"/>
<path d="M732.216 481.301L672.831 405.148L648.372 373.772L602.129 314.567L466.808 141.418L430.666 218.945L503.924 331.744H503.681L607.118 491.379L732.216 481.301Z" fill="#63C1A0"/>
<path d="M121.691 516.344L0 549.324L112.564 658L160.389 568.563L121.691 516.344Z" fill="#331433"/>
<path d="M264.8 373.428L44.0522 412.02L0 549.324L121.691 516.344L199.573 495.273L316.032 463.781L548.462 400.798L503.679 331.745L264.8 373.428Z" fill="#E01A59"/>
<path d="M763.492 286.51L602.129 314.567L648.372 373.772L709.46 357.281L804.866 331.401L763.492 286.51Z" fill="#E01A59"/>
<path d="M521.206 25.299L453.789 20.0312L264.803 373.428L366.658 355.678L430.668 218.946L466.81 141.418L521.206 25.299Z" fill="#ECB32D"/>
<path d="M199.576 495.272L160.391 568.563L112.566 658L225.861 656.511L316.034 463.781L199.576 495.272Z" fill="#ECB32D"/>
<path d="M453.786 20.0306L492.241 -52L323.82 -41.6936L366.656 13.1596L453.786 20.0306Z" fill="#89D3DF"/>
<path d="M323.819 -41.6936L293.639 7.43376L366.654 13.1596L323.819 -41.6936Z" fill="#89D3DF"/>
<path d="M521.205 25.2982L492.242 -52L453.788 20.0304L521.205 25.2982Z" fill="#89D3DF"/>
<path fill-rule="evenodd" clip-rule="evenodd" d="M0 0H750V658H0V0Z" fill="url(#paint1_linear_1_2858)"/>
<path fill-rule="evenodd" clip-rule="evenodd" d="M200 271H329V326H200V271Z" fill="#00549E"/>
<path d="M215.291 313.885H223.893V305.313H215.291V313.885Z" fill="white"/>
<path d="M241.924 314.5C248.649 314.5 252.491 311.555 255.417 307.555L249.042 302.984C247.164 305.225 245.33 306.72 242.142 306.72C237.863 306.72 234.85 303.115 234.85 298.5V298.412C234.85 293.929 237.863 290.236 242.142 290.236C245.112 290.236 247.077 291.687 248.823 293.841L255.198 288.874C252.535 285.137 248.43 282.5 242.23 282.5C232.973 282.5 226.161 289.533 226.161 298.5V298.588C226.161 307.775 233.191 314.5 241.924 314.5Z" fill="white"/>
<path d="M259.104 313.885H267.575V305.093H271.811C279.365 305.093 284.91 301.269 284.91 293.973V293.885C284.91 287.071 279.933 283.115 272.247 283.115H259.104V313.885ZM267.575 298.412V290.28H271.592C274.605 290.28 276.483 291.643 276.483 294.28V294.368C276.483 296.83 274.605 298.412 271.636 298.412H267.575Z" fill="white"/>
<path d="M288.485 313.885H296.956V305.093H301.191C308.745 305.093 314.291 301.269 314.291 293.973V293.885C314.291 287.071 309.313 283.115 301.628 283.115H288.485V313.885ZM296.956 298.412V290.28H300.973C303.986 290.28 305.864 291.643 305.864 294.28V294.368C305.864 296.83 303.986 298.412 301.017 298.412H296.956Z" fill="white"/>
<defs>
<linearGradient id="paint0_linear_1_2858" x1="148.072" y1="194.939" x2="330.986" y2="309.009" gradientUnits="userSpaceOnUse">
<stop stop-color="#0080CD" stop-opacity="0.46"/>
<stop offset="1" stop-color="#470A3F" stop-opacity="0.6"/>
</linearGradient>
<linearGradient id="paint1_linear_1_2858" x1="671.107" y1="77.5535" x2="-74.2981" y2="452.596" gradientUnits="userSpaceOnUse">
<stop offset="0.145833" stop-color="#240E25" stop-opacity="0.89"/>
<stop offset="1" stop-color="#240E25" stop-opacity="0"/>
</linearGradient>
<clipPath id="clip0_1_2858">
<rect width="102" height="115" fill="white" transform="translate(170 145)"/>
</clipPath>
</defs>
</svg>
